<?xml version="1.0" encoding="utf-8"?>
<!-- Generator: Adobe Illustrator 27.5.0, SVG Export Plug-In . SVG Version: 6.00 Build 0)  -->
<svg version="1.1" xmlns="http://www.w3.org/2000/svg" xmlns:xlink="http://www.w3.org/1999/xlink" x="0px" y="0px"
	 viewBox="0 0 500 500" style="enable-background:new 0 0 500 500;" xml:space="preserve">
<g id="BACKGROUND">
	<rect style="fill:#121322;" width="500" height="500"/>
</g>
<g id="OBJECTS">
	<g>
		<g>
			<linearGradient id="SVGID_1_" gradientUnits="userSpaceOnUse" x1="156.3564" y1="211.4091" x2="318.8754" y2="211.4091">
				<stop  offset="0" style="stop-color:#DB3ABC"/>
				<stop  offset="1" style="stop-color:#5432C4"/>
			</linearGradient>
			<path style="fill:url(#SVGID_1_);" d="M261.77,135.441h56.692v-30.385H261.77c-139.17,0-139.17,212.706,0,212.706h56.692v-30.69
				H261.77C162.71,287.072,162.71,135.441,261.77,135.441z"/>
			
				<linearGradient id="SVGID_00000183951974250585870940000005324073590744495022_" gradientUnits="userSpaceOnUse" x1="237.9274" y1="363.2073" x2="237.9274" y2="186.0152">
				<stop  offset="0" style="stop-color:#13355C"/>
				<stop  offset="0.9964" style="stop-color:#FFFFFF;stop-opacity:0"/>
			</linearGradient>
			<path style="fill:url(#SVGID_00000183951974250585870940000005324073590744495022_);" d="M261.77,313.881
				c-31.091,0-57.15-11.033-75.359-31.905c-16.21-18.582-25.137-43.644-25.137-70.567c0-26.924,8.927-51.984,25.137-70.566
				c18.209-20.873,44.268-31.906,75.359-31.906h56.692v-3.881H261.77c-139.17,0-139.17,212.706,0,212.706h56.692v-3.881H261.77z"/>
			
				<radialGradient id="SVGID_00000074430809842892766530000009509486869945887411_" cx="286.3523" cy="84.0122" r="121.8" gradientUnits="userSpaceOnUse">
				<stop  offset="0" style="stop-color:#FFFFFF"/>
				<stop  offset="0.9964" style="stop-color:#FFFFFF;stop-opacity:0"/>
			</radialGradient>
			<path style="opacity:0.7;fill:url(#SVGID_00000074430809842892766530000009509486869945887411_);" d="M261.77,313.881
				c-31.091,0-57.15-11.033-75.359-31.905c-16.21-18.582-25.137-43.644-25.137-70.567c0-26.924,8.927-51.984,25.137-70.566
				c18.209-20.873,44.268-31.906,75.359-31.906h56.692v-3.881H261.77c-139.17,0-139.17,212.706,0,212.706h56.692v-3.881H261.77z"/>
			
				<linearGradient id="SVGID_00000016072621375396237180000002369470265595326876_" gradientUnits="userSpaceOnUse" x1="251.0283" y1="69.005" x2="251.0283" y2="282.5101">
				<stop  offset="0" style="stop-color:#13355C"/>
				<stop  offset="0.9964" style="stop-color:#FFFFFF;stop-opacity:0"/>
			</linearGradient>
			<path style="fill:url(#SVGID_00000016072621375396237180000002369470265595326876_);" d="M261.77,135.441h56.692v-3.88H261.77
				c-24.107,0-44.387,8.653-58.647,25.024c-12.593,14.458-19.528,33.873-19.528,54.672c0,20.798,6.935,40.215,19.528,54.671
				c14.26,16.371,34.54,25.024,58.647,25.024h56.692v-3.88H261.77C162.71,287.072,162.71,135.441,261.77,135.441z"/>
			
				<linearGradient id="SVGID_00000075130103741624379990000010850500720572096438_" gradientUnits="userSpaceOnUse" x1="252.2025" y1="271.7189" x2="326.0565" y2="143.8">
				<stop  offset="0" style="stop-color:#DB00BC"/>
				<stop  offset="0.1618" style="stop-color:#DD15A9"/>
				<stop  offset="0.4978" style="stop-color:#E24D79"/>
				<stop  offset="0.976" style="stop-color:#EAA52C"/>
				<stop  offset="1" style="stop-color:#EAAA28"/>
			</linearGradient>
			<path style="fill:url(#SVGID_00000075130103741624379990000010850500720572096438_);" d="M318.463,193.289v-15.644h-53.587
				c-22.724,0-33.07,17.499-33.07,33.765c0,16.255,10.346,33.755,33.07,33.755h53.587v-14.016h-37.331v-24.145h61.476v62.461
				h-77.731c-37.456,0-57.059-29.204-57.059-58.055c0-15.125,5.059-29.245,14.244-39.788c6.438-7.371,14.545-12.606,23.927-15.519
				c5.826-1.825,12.15-2.747,18.888-2.747h77.731v39.933H318.463z"/>
			
				<linearGradient id="SVGID_00000086668542064890177190000006639809145820949676_" gradientUnits="userSpaceOnUse" x1="275.1346" y1="212.3369" x2="275.1346" y2="154.749">
				<stop  offset="0.0036" style="stop-color:#FFFFFF;stop-opacity:0"/>
				<stop  offset="1" style="stop-color:#CD2440"/>
			</linearGradient>
			<path style="fill:url(#SVGID_00000086668542064890177190000006639809145820949676_);" d="M322.343,193.29v-19.522h-57.465
				c-17.797,0-36.951,11.779-36.951,37.641c0,25.862,19.154,37.641,36.951,37.641h57.465v-21.786h-41.215v3.881h37.335v14.024
				h-53.585c-22.722,0-33.07-17.501-33.07-33.761c0-16.26,10.349-33.761,33.07-33.761h53.585v15.642H322.343z"/>
			
				<linearGradient id="SVGID_00000080203610145893449230000017311286345932466621_" gradientUnits="userSpaceOnUse" x1="275.2113" y1="228.3335" x2="275.2113" y2="279.3024">
				<stop  offset="0.0036" style="stop-color:#FFFFFF;stop-opacity:0"/>
				<stop  offset="1" style="stop-color:#CD2440"/>
			</linearGradient>
			<path style="fill:url(#SVGID_00000080203610145893449230000017311286345932466621_);" d="M342.607,193.29v-39.939h-77.73
				c-17.578,0-32.382,6.32-42.812,18.276c-9.189,10.535-14.25,24.663-14.25,39.783c0,28.851,19.601,58.059,57.062,58.059h77.728
				l0.001-62.468h-61.48v3.881h57.599l-0.001,54.707h-73.848c-34.914,0-53.182-27.255-53.182-54.179
				c0-14.182,4.721-27.405,13.293-37.232c9.672-11.086,23.465-16.946,39.888-16.946h73.849v36.059H342.607z"/>
			
				<radialGradient id="SVGID_00000026871413501133184050000015485280263759672232_" cx="277.0837" cy="131.7845" r="110.4659" gradientUnits="userSpaceOnUse">
				<stop  offset="0" style="stop-color:#FFFFFF"/>
				<stop  offset="0.9964" style="stop-color:#FFFFFF;stop-opacity:0"/>
			</radialGradient>
			<path style="opacity:0.7;fill:url(#SVGID_00000026871413501133184050000015485280263759672232_);" d="M342.607,193.29v-39.939
				h-77.73c-17.578,0-32.382,6.32-42.812,18.276c-9.189,10.535-14.25,24.663-14.25,39.783c0,28.851,19.601,58.059,57.062,58.059
				h77.728l0.001-62.468h-61.48v3.881h57.599l-0.001,54.707h-73.848c-34.914,0-53.182-27.255-53.182-54.179
				c0-14.182,4.721-27.405,13.293-37.232c9.672-11.086,23.465-16.946,39.888-16.946h73.849v36.059H342.607z"/>
		</g>
		
			<radialGradient id="SVGID_00000058555590366720255580000011245550994981186971_" cx="269.0471" cy="140.6888" r="66.5029" gradientUnits="userSpaceOnUse">
			<stop  offset="0" style="stop-color:#FFFFFF"/>
			<stop  offset="0.9964" style="stop-color:#FFFFFF;stop-opacity:0"/>
		</radialGradient>
		<path style="opacity:0.7;fill:url(#SVGID_00000058555590366720255580000011245550994981186971_);" d="M329.245,153.356
			c-6.251,6.894-23.243,11.849-43.23,11.849c-17.209,0-32.21-3.67-40.027-9.102c5.826-1.825,12.15-2.747,18.888-2.747H329.245z"/>
	</g>
</g>
<g id="TEXTS">
	<g>
		<g>
			
				<text transform="matrix(1.0084 0 0 1 163.3139 371.076)" style="fill:#FFFFFF; font-family:'KronaOne-Regular'; font-size:45.9131px;">STUDIO</text>
		</g>
		<g>
			
				<text transform="matrix(1.0084 0 0 1 160.636 394.3344)" style="fill:#FFFFFF; font-family:'Montserrat-Light'; font-size:14.7342px;">YOUR TAGLINE HERE</text>
		</g>
	</g>
</g>
</svg>
